<svg xmlns="http://www.w3.org/2000/svg" width="358" height="82" fill="none" viewBox="0 0 358 82">
  <path fill="#000" d="M309.37 69.894c-.571 1.68-.667 1.178.007 1.514.896.248 12.562.36 16.385-14.387 3.823-14.56-1.884-15.093-3.59-15.452-.938-.198-2.746-.294-3.489-.185l-.517.076-.95-2.088c-1.036-2.277-1.156-2.448-1.666-2.352-.239.045-.528.31-1.688 1.552-.771.825-1.429 1.5-1.464 1.5-.035 0-1.07-.606-2.299-1.346-2.665-1.603-2.648-1.595-3-1.447-.518.218-.517.21-.265 3.392l.183 2.31-.242.358c-.133.197-.758.87-1.39 1.497-.957.948-1.194 1.233-1.419 1.709l-.27.57-.004 1.542c-.003 1.384-.022 1.596-.192 2.074-.326.92-.802 1.77-1.973 3.52-1.711 2.559-2.392 4.071-2.513 5.583-.188 2.352 1.509 4.434 3.902 4.786.35.052.401.089.537.391.083.184.268.423.411.532.307.234.886.452 1.203.452.741 0 1.798-.633 2.454-1.47.206-.262.588-.892.85-1.4 1.409-2.733 1.905-3.204 5.065-4.808a44.285 44.285 0 0 0 2.377-1.296c.475-.291.884-.529.909-.529.024 0 .022.497-.005 1.105-.075 1.721-.359 2.84-1.08 4.255-.603 1.186-1.12 1.815-3.061 3.726-2.154 2.122-2.717 2.88-3.206 4.316Z"/>
  <path fill="#fff" d="M309.621 40.141c-.737-.443-1.351-.795-1.364-.782-.013.012.021.622.076 1.356l.1 1.332 1.264-.55 1.265-.55-1.341-.806Zm20.321 28.5c.241-.24.241-.25-.019-3.538-.483-6.142 2.96-9.56 1.305-13.737-.484-1.223-1.408-2.972-2.047-3.876-1.372-1.942-3.412-3.53-5.487-4.276-1.243-.447-2.207-.601-3.702-.593-.893.004-1.593.052-1.998.136-.341.07-.666.112-.718.092-.054-.02-.389-.682-.747-1.47l-.858-1.886-.206-.453-1.3 1.342-1.3 1.342-2.264.975-2.264.975-.546.73c-.301.403-.923 1.08-1.384 1.505-1.236 1.14-1.21 1.078-1.217 2.831-.005 1.255-.032 1.546-.192 2.084-.315 1.061-1.018 2.386-2.211 4.168-1.309 1.955-1.989 3.254-2.184 4.169-.165.776-.116 1.748.114 2.26.405.904 1.403 1.62 2.381 1.712l.535.05.558-.74c.308-.407.64-.787.74-.842.404-.226.839-.082 1.013.334.148.349.075.517-.633 1.46-.321.427-.571.84-.557.917.049.255.567.225.954-.055.535-.388.892-.889 1.619-2.268.373-.708.84-1.516 1.04-1.795.764-1.073 1.918-1.908 4.318-3.128 2.363-1.2 4.452-2.533 5.068-3.232.727-.824 1.036-1.785.963-3.004-.054-.914.039-1.186.45-1.33.209-.072.32-.065.539.04.348.166.456.452.513 1.37.089 1.4-.539 3.055-1.548 4.081l-.553.564.067.53c.1.792 0 2.592-.192 3.45-.379 1.69-1.09 3.3-2.021 4.571-.276.378-1.306 1.479-2.312 2.473-1.795 1.773-2.314 2.4-2.722 3.292-.26.567-.444 1.439-.446 2.105l-.001.52h11.79c7.769 0 6.867-3.78 6.901-3.726.101.163.544.088.761-.129Z"/>
  <path fill="#000" d="M306.244 50.394c.377-.71 1.465-2.46 1.686-2.71.449-.513 1.146-.732 1.679-.53.117.045.214.13.214.19 0 .26-.676 1.239-1.253 1.814-.476.475-.798.71-1.334.975-.388.192-.794.373-.901.403-.181.05-.188.041-.091-.142Zm-5.157 10.213c.031-.66.084-.929.256-1.304.227-.497.598-.81.961-.81.469-.001.933.468.933.942 0 .36-.359.746-1.283 1.38l-.907.624.04-.832Z"/>
  <path fill="#000" d="M31.248 81.224c-9.6 0-16.8-2.52-21.6-7.56-4.752-5.04-7.128-11.976-7.128-20.808 0-5.376 1.08-10.2 3.24-14.472 2.16-4.32 5.4-7.728 9.72-10.224 4.32-2.496 9.576-3.744 15.768-3.744 2.544 0 4.8.216 6.768.648 2.016.384 4.176 1.056 6.48 2.016v11.232a29.3 29.3 0 0 0-12.888-2.952c-3.12 0-5.904.768-8.352 2.304-2.4 1.488-4.272 3.552-5.616 6.192-1.344 2.64-2.016 5.616-2.016 8.928 0 5.28 1.368 9.528 4.104 12.744 2.784 3.168 6.624 4.752 11.52 4.752 2.304 0 4.56-.336 6.768-1.008 2.208-.72 4.536-1.728 6.984-3.024l3.816 10.584a37.838 37.838 0 0 1-8.784 3.24c-3.072.768-6 1.152-8.784 1.152Zm49.024-42.84c5.424 0 9.48 1.368 12.168 4.104 2.688 2.736 4.032 7.08 4.032 13.032V80H83.944V55.52c0-1.968-.504-3.456-1.512-4.464-.96-1.056-2.616-1.584-4.968-1.584-2.784 0-5.64 1.152-8.568 3.456V80H56.368V19.088h12.528v23.4c1.776-1.392 3.576-2.424 5.4-3.096 1.872-.672 3.864-1.008 5.976-1.008Zm36.892 25.128c.528 2.304 1.608 4.104 3.24 5.4 1.68 1.296 4.128 1.944 7.344 1.944 1.872 0 3.648-.216 5.328-.648 1.728-.48 3.696-1.272 5.904-2.376l3.24 9.648c-2.496 1.392-4.968 2.352-7.416 2.88-2.448.576-5.376.864-8.784.864-4.752 0-8.808-.888-12.168-2.664-3.312-1.824-5.832-4.368-7.56-7.632-1.728-3.264-2.592-7.056-2.592-11.376 0-4.512.888-8.376 2.664-11.592 1.776-3.264 4.176-5.712 7.2-7.344 3.024-1.68 6.408-2.52 10.152-2.52 6 0 10.704 1.752 14.112 5.256 3.408 3.456 5.112 8.52 5.112 15.192v4.968h-25.776Zm6.552-15.048c-1.728 0-3.144.432-4.248 1.296-1.056.864-1.8 2.352-2.232 4.464h12.528c-.192-2.016-.792-3.48-1.8-4.392-.96-.912-2.376-1.368-4.248-1.368Zm41.857 32.76c-3.408 0-6.432-.288-9.072-.864-2.592-.528-5.304-1.464-8.136-2.808V66.536c2.736 1.536 5.496 2.64 8.28 3.312 2.784.672 5.76 1.008 8.928 1.008 3.12 0 4.68-.936 4.68-2.808 0-.768-.216-1.344-.648-1.728-.432-.384-1.128-.696-2.088-.936l-6.984-1.44c-4.08-.816-7.056-2.208-8.928-4.176-1.872-1.968-2.808-4.656-2.808-8.064 0-4.608 1.416-8.016 4.248-10.224 2.88-2.256 7.224-3.384 13.032-3.384 2.4 0 4.896.24 7.488.72 2.64.48 5.136 1.104 7.488 1.872v10.656c-1.824-.864-4.056-1.56-6.696-2.088a38.175 38.175 0 0 0-7.632-.792c-1.968 0-3.336.192-4.104.576-.768.384-1.152.984-1.152 1.8 0 .624.192 1.08.576 1.368.384.24 1.032.456 1.944.648l6.984 1.44c4.224.864 7.272 2.28 9.144 4.248 1.872 1.968 2.808 4.896 2.808 8.784 0 4.656-1.56 8.136-4.68 10.44-3.12 2.304-7.344 3.456-12.672 3.456Zm40.711 0c-3.408 0-6.432-.288-9.072-.864-2.592-.528-5.304-1.464-8.136-2.808V66.536c2.736 1.536 5.496 2.64 8.28 3.312 2.784.672 5.76 1.008 8.928 1.008 3.12 0 4.68-.936 4.68-2.808 0-.768-.216-1.344-.648-1.728-.432-.384-1.128-.696-2.088-.936l-6.984-1.44c-4.08-.816-7.056-2.208-8.928-4.176-1.872-1.968-2.808-4.656-2.808-8.064 0-4.608 1.416-8.016 4.248-10.224 2.88-2.256 7.224-3.384 13.032-3.384 2.4 0 4.896.24 7.488.72 2.64.48 5.136 1.104 7.488 1.872v10.656c-1.824-.864-4.056-1.56-6.696-2.088a38.175 38.175 0 0 0-7.632-.792c-1.968 0-3.336.192-4.104.576-.768.384-1.152.984-1.152 1.8 0 .624.192 1.08.576 1.368.384.24 1.032.456 1.944.648l6.984 1.44c4.224.864 7.272 2.28 9.144 4.248 1.872 1.968 2.808 4.896 2.808 8.784 0 4.656-1.56 8.136-4.68 10.44-3.12 2.304-7.344 3.456-12.672 3.456Zm70.303-34.56v29.52a39.472 39.472 0 0 1-9.432 3.744c-3.312.864-6.432 1.296-9.36 1.296-6.192 0-11.448-1.176-15.768-3.528-4.32-2.4-7.56-5.736-9.72-10.008-2.16-4.272-3.24-9.24-3.24-14.904 0-5.376 1.032-10.2 3.096-14.472 2.112-4.272 5.304-7.656 9.576-10.152 4.32-2.496 9.672-3.744 16.056-3.744 3.168 0 5.832.312 7.992.936 2.208.576 4.68 1.464 7.416 2.664v11.448c-2.448-1.344-4.872-2.352-7.272-3.024-2.352-.72-5.064-1.08-8.136-1.08-3.216 0-6.024.744-8.424 2.232-2.352 1.44-4.152 3.48-5.4 6.12-1.2 2.592-1.8 5.544-1.8 8.856 0 5.376 1.368 9.672 4.104 12.888 2.736 3.216 6.576 4.824 11.52 4.824 2.208 0 4.248-.336 6.12-1.008v-11.52h-13.608V46.664h26.28Zm34.911 34.56c-6.048 0-11.184-1.224-15.408-3.672-4.224-2.496-7.392-5.88-9.504-10.152-2.112-4.32-3.168-9.192-3.168-14.616 0-5.328 1.056-10.128 3.168-14.4s5.28-7.656 9.504-10.152c4.224-2.544 9.36-3.816 15.408-3.816 5.952 0 11.04 1.272 15.264 3.816 4.224 2.496 7.392 5.904 9.504 10.224 2.16 4.272 3.24 9.048 3.24 14.328 0 5.424-1.08 10.296-3.24 14.616-2.112 4.272-5.28 7.656-9.504 10.152-4.176 2.448-9.264 3.672-15.264 3.672Zm0-10.944c4.656 0 8.28-1.632 10.872-4.896 2.592-3.264 3.888-7.536 3.888-12.816 0-3.312-.576-6.264-1.728-8.856-1.152-2.592-2.856-4.632-5.112-6.12-2.208-1.488-4.848-2.232-7.92-2.232-4.752 0-8.424 1.608-11.016 4.824-2.544 3.216-3.816 7.416-3.816 12.6 0 5.28 1.272 9.528 3.816 12.744 2.544 3.168 6.216 4.752 11.016 4.752Z"/>
</svg>
